<mxfile host="drawio-plugin" modified="2021-04-20T09:29:23.902Z" agent="5.0 (X11; Linux x86_64) AppleWebKit/537.36 (KHTML, like Gecko) Chrome/87.0.4280.141 Safari/537.36" etag="NScqck18c--fDGJIJf-m" version="13.7.9" type="embed"><diagram id="jAzqqjiPtEjgFndvke7c" name="Page-1"><mxGraphModel dx="913" dy="723" grid="1" gridSize="10" guides="1" tooltips="1" connect="1" arrows="1" fold="1" page="1" pageScale="1" pageWidth="850" pageHeight="1100" math="0" shadow="0"><root><mxCell id="0"/><mxCell id="1" parent="0"/><mxCell id="9r_3xoCngnSzPjv4ngsg-1" value="/api/v1/microlc/authentication" style="rounded=0;whiteSpace=wrap;html=1;" parent="1" vertex="1"><mxGeometry x="80" y="360" width="160" height="80" as="geometry"/></mxCell><mxCell id="9r_3xoCngnSzPjv4ngsg-2" value="" style="endArrow=classic;html=1;exitX=1;exitY=0.5;exitDx=0;exitDy=0;" parent="1" source="9r_3xoCngnSzPjv4ngsg-1" edge="1"><mxGeometry width="50" height="50" relative="1" as="geometry"><mxPoint x="300" y="420" as="sourcePoint"/><mxPoint x="320" y="400" as="targetPoint"/></mxGeometry></mxCell><mxCell id="9r_3xoCngnSzPjv4ngsg-5" style="edgeStyle=orthogonalEdgeStyle;rounded=0;orthogonalLoop=1;jettySize=auto;html=1;exitX=0.5;exitY=1;exitDx=0;exitDy=0;" parent="1" source="9r_3xoCngnSzPjv4ngsg-3" target="9r_3xoCngnSzPjv4ngsg-4" edge="1"><mxGeometry relative="1" as="geometry"/></mxCell><mxCell id="9r_3xoCngnSzPjv4ngsg-6" value="No" style="edgeLabel;html=1;align=center;verticalAlign=middle;resizable=0;points=[];" parent="9r_3xoCngnSzPjv4ngsg-5" vertex="1" connectable="0"><mxGeometry relative="1" as="geometry"><mxPoint as="offset"/></mxGeometry></mxCell><mxCell id="9r_3xoCngnSzPjv4ngsg-8" style="edgeStyle=orthogonalEdgeStyle;rounded=0;orthogonalLoop=1;jettySize=auto;html=1;exitX=0.5;exitY=0;exitDx=0;exitDy=0;entryX=0;entryY=0.5;entryDx=0;entryDy=0;" parent="1" source="9r_3xoCngnSzPjv4ngsg-3" target="9r_3xoCngnSzPjv4ngsg-7" edge="1"><mxGeometry relative="1" as="geometry"/></mxCell><mxCell id="9r_3xoCngnSzPjv4ngsg-9" value="Yes" style="edgeLabel;html=1;align=center;verticalAlign=middle;resizable=0;points=[];" parent="9r_3xoCngnSzPjv4ngsg-8" vertex="1" connectable="0"><mxGeometry x="-0.0364" y="-2" relative="1" as="geometry"><mxPoint as="offset"/></mxGeometry></mxCell><mxCell id="9r_3xoCngnSzPjv4ngsg-3" value="Is auth&lt;br&gt;necessary?" style="rhombus;whiteSpace=wrap;html=1;" parent="1" vertex="1"><mxGeometry x="320" y="355" width="90" height="90" as="geometry"/></mxCell><mxCell id="9r_3xoCngnSzPjv4ngsg-12" style="edgeStyle=orthogonalEdgeStyle;rounded=0;orthogonalLoop=1;jettySize=auto;html=1;exitX=1;exitY=0.5;exitDx=0;exitDy=0;entryX=0.5;entryY=1;entryDx=0;entryDy=0;" parent="1" source="9r_3xoCngnSzPjv4ngsg-4" target="9r_3xoCngnSzPjv4ngsg-10" edge="1"><mxGeometry relative="1" as="geometry"/></mxCell><mxCell id="9r_3xoCngnSzPjv4ngsg-4" value="/api/v1/microlc/configuration" style="rounded=0;whiteSpace=wrap;html=1;" parent="1" vertex="1"><mxGeometry x="440" y="440" width="160" height="80" as="geometry"/></mxCell><mxCell id="9r_3xoCngnSzPjv4ngsg-11" style="edgeStyle=orthogonalEdgeStyle;rounded=0;orthogonalLoop=1;jettySize=auto;html=1;exitX=1;exitY=0.5;exitDx=0;exitDy=0;entryX=0.5;entryY=0;entryDx=0;entryDy=0;" parent="1" source="9r_3xoCngnSzPjv4ngsg-7" target="9r_3xoCngnSzPjv4ngsg-10" edge="1"><mxGeometry relative="1" as="geometry"/></mxCell><mxCell id="9r_3xoCngnSzPjv4ngsg-7" value="parallel calls to:&lt;br&gt;configured auth endpoint&lt;br&gt;+&lt;br&gt;/api/v1/microlc/configuration" style="rounded=0;whiteSpace=wrap;html=1;" parent="1" vertex="1"><mxGeometry x="440" y="280" width="160" height="80" as="geometry"/></mxCell><mxCell id="9r_3xoCngnSzPjv4ngsg-10" value="End" style="ellipse;whiteSpace=wrap;html=1;" parent="1" vertex="1"><mxGeometry x="660" y="360" width="120" height="80" as="geometry"/></mxCell></root></mxGraphModel></diagram></mxfile>